#!OML:ASF H:\Pregnant\Project 1\Capture day 1\Session 1\femalepreg.ASF
:FULLY-SPECIFIED
:DEGREES
189
root 2.84088 15.7221 31.9073 169.729 -86.5188 -152.961
lowerback -23.9136 0.0495179 -0.666821
upperback -6.26467 -0.289502 0.15441
thorax 6.41751 -0.359718 0.44267
lowerneck -18.8156 -0.843976 1.71885
upperneck 23.9899 -3.5552 5.33625
head 10.9678 -0.921336 1.08967
rclavicle 2.48481e-017 5.1684e-015
rhumerus -39.7873 6.63496 -88.7889
rradius 24.6952
rwrist -7.11303
rhand -18.0448 -22.903
rfingers 7.12502
rthumb 8.22712 -52.7229
lclavicle 2.48481e-017 5.1684e-015
lhumerus -42.2562 -23.141 97.0666
lradius 32.3961
lwrist 38.7272
lhand -28.8918 7.88778
lfingers 7.12502
lthumb -2.24723 37.8557
rfemur -25.8411 19.3233 22.2915
rtibia 25.7032
rfoot -13.1889 -14.0709
rtoes 6.05517
lfemur 0 0 0
ltibia 0
lfoot 0 0
ltoes 0
190
root 2.84057 15.7222 31.909 169.85 -86.4782 -153.067
lowerback -23.9142 0.158531 -0.60689
upperback -6.27291 -0.15182 0.018143
thorax 6.40669 -0.292798 0.299664
lowerneck -18.7712 -0.78638 1.68599
upperneck 23.9529 -3.43657 5.27417
head 10.941 -0.878276 1.09046
rclavicle -4.42296e-015 -8.15017e-015
rhumerus -39.9079 6.89333 -89.1212
rradius 24.7436
rwrist -7.3983
rhand -18.1252 -22.9854
rfingers 7.12502
rthumb 8.14949 -52.8083
lclavicle -4.42296e-015 -8.15017e-015
lhumerus -42.1789 -23.0077 96.8276
lradius 32.4514
lwrist 38.7404
lhand -28.8515 7.78754
lfingers 7.12502
lthumb -2.20831 37.7559
rfemur -25.8634 19.3414 22.2879
rtibia 25.7004
rfoot -13.1702 -14.0508
rtoes 6.02118
lfemur 0 0 0
ltibia 0
lfoot 0 0
ltoes 0
191
root 2.84036 15.7223 31.9104 170.014 -86.4399 -153.217
lowerback -23.9116 0.282134 -0.546344
upperback -6.28086 0.00548501 -0.127066
thorax 6.39533 -0.216339 0.152209
lowerneck -18.7475 -0.746946 1.5879
upperneck 23.9235 -3.33638 5.25413
head 10.9233 -0.843707 1.11469
rclavicle 1.54058e-015 1.07344e-014
rhumerus -40.0194 7.0921 -89.4247
rradius 24.7748
rwrist -7.64184
rhand -18.1747 -23.0579
rfingers 7.12502
rthumb 8.10173 -52.8826
lclavicle 1.54058e-015 1.07344e-014
lhumerus -42.1095 -22.9203 96.6105
lradius 32.5027
lwrist 38.776
lhand -28.7735 7.67491
lfingers 7.12502
lthumb -2.13293 37.644
rfemur -25.8852 19.3528 22.283
rtibia 25.6991
rfoot -13.1535 -14.026
rtoes 5.98656
lfemur 0 0 0
ltibia 0
lfoot 0 0
ltoes 0
192
root 2.84018 15.7225 31.9115 170.159 -86.4024 -153.35
lowerback -23.9065 0.406044 -0.49005
upperback -6.28723 0.164347 -0.272297
thorax 6.38545 -0.139116 0.00759367
lowerneck -18.7288 -0.712492 1.47334
upperneck 23.8931 -3.24324 5.2513
head 10.907 -0.81164 1.1468
rclavicle -3.18055e-015 -1.90833e-014
rhumerus -40.1069 7.22334 -89.6844
rradius 24.7771
rwrist -7.79768
rhand -18.1687 -23.0887
rfingers 7.12502
rthumb 8.10747 -52.9131
lclavicle -3.18055e-015 -1.90833e-014
lhumerus -42.0505 -22.8721 96.4156
lradius 32.5485
lwrist 38.857
lhand -28.7166 7.55714
lfingers 7.12502
lthumb -2.07799 37.5268
rfemur -25.9041 19.3653 22.28
rtibia 25.697
rfoot -13.1404 -14.0032
rtoes 5.97526
lfemur 0 0 0
ltibia 0
lfoot 0 0
ltoes 0
193
root 2.84015 15.7227 31.9125 170.264 -86.365 -153.444
lowerback -23.8984 0.513221 -0.448816
upperback -6.29226 0.303896 -0.402026
thorax 6.37638 -0.0713311 -0.117099
lowerneck -18.7041 -0.663451 1.40291
upperneck 23.8573 -3.13278 5.21327
head 10.8856 -0.772117 1.16127
rclavicle 6.4605e-016 1.23246e-014
rhumerus -40.173 7.37481 -89.9334
rradius 24.7569
rwrist -7.90708
rhand -18.1397 -23.0932
rfingers 7.12502
rthumb 8.13549 -52.9166
lclavicle 6.4605e-016 1.23246e-014
lhumerus -41.9943 -22.8052 96.2271
lradius 32.5934
lwrist 38.9799
lhand -28.6964 7.44213
lfingers 7.12502
lthumb -2.0585 37.4119
rfemur -25.9217 19.3756 22.28
rtibia 25.6935
rfoot -13.1302 -13.9751
rtoes 5.98823
lfemur 0 0 0
ltibia 0
lfoot 0 0
ltoes 0
194
root 2.84025 15.7228 31.9129 170.338 -86.3274 -153.508
lowerback -23.8877 0.59881 -0.431116
upperback -6.29609 0.419558 -0.512998
thorax 6.36768 -0.0152657 -0.214788
lowerneck -18.6716 -0.592655 1.40381
upperneck 23.8198 -2.99856 5.12132
head 10.8597 -0.721991 1.14771
rclavicle -1.59525e-014 -3.57812e-015
rhumerus -40.2202 7.54904 -90.171
rradius 24.723
rwrist -7.97339
rhand -18.0861 -23.0795
rfingers 7.12502
rthumb 8.18728 -52.9009
lclavicle -1.59525e-014 -3.57812e-015
lhumerus -41.9433 -22.715 96.0444
lradius 32.6375
lwrist 39.1492
lhand -28.7041 7.34986
lfingers 7.12502
lthumb -2.06593 37.3196
rfemur -25.9375 19.3899 22.2828
rtibia 25.6866
rfoot -13.1209 -13.9491
rtoes 6.01449
lfemur 0 0 0
ltibia 0
lfoot 0 0
ltoes 0
195
root 2.84043 15.7229 31.9129 170.387 -86.2907 -153.546
lowerback -23.8766 0.663284 -0.437148
upperback -6.29925 0.511916 -0.605145
thorax 6.35946 0.0293331 -0.285116
lowerneck -18.6244 -0.49991 1.48426
upperneck 23.7722 -2.8394 4.96657
head 10.8248 -0.661298 1.10166
rclavicle -8.59744e-015 1.07344e-014
rhumerus -40.254 7.75446 -90.4018
rradius 24.6793
rwrist -8.00737
rhand -18.0079 -23.0514
rfingers 7.12502
rthumb 8.26273 -52.8698
lclavicle -8.59744e-015 1.07344e-014
lhumerus -41.9036 -22.6118 95.8775
lradius 32.6833
lwrist 39.3532
lhand -28.7795 7.3044
lfingers 7.12502
lthumb -2.1388 37.2734
rfemur -25.952 19.3995 22.2892
rtibia 25.6762
rfoot -13.1099 -13.9205
rtoes 6.03584
lfemur 0 0 0
ltibia 0
lfoot 0 0
ltoes 0
196
root 2.84061 15.7229 31.9124 170.388 -86.2538 -153.535
lowerback -23.866 0.710509 -0.466672
upperback -6.30134 0.585901 -0.677217
thorax 6.35232 0.0648871 -0.325438
lowerneck -18.5668 -0.391335 1.62601
upperneck 23.7175 -2.65931 4.75173
head 10.7835 -0.592971 1.02666
rclavicle 2.38542e-015 -6.75868e-015
rhumerus -40.281 7.98883 -90.6214
rradius 24.637
rwrist -8.02709
rhand -17.9157 -23.0225
rfingers 7.12502
rthumb 8.35169 -52.8374
lclavicle 2.38542e-015 -6.75868e-015
lhumerus -41.8648 -22.479 95.7185
lradius 32.7236
lwrist 39.5741
lhand -28.8634 7.28654
lfingers 7.12502
lthumb -2.2198 37.2547
rfemur -25.9651 19.4095 22.3009
rtibia 25.6628
rfoot -13.0951 -13.8918
rtoes 6.04501
lfemur 0 0 0
ltibia 0
lfoot 0 0
ltoes 0
